<?xml version="1.0" standalone="no"?>
<!DOCTYPE svg PUBLIC "-//W3C//DTD SVG 20010904//EN"
 "http://www.w3.org/TR/2001/REC-SVG-20010904/DTD/svg10.dtd">
<svg version="1.0" xmlns="http://www.w3.org/2000/svg"
 width="700.000000pt" height="700.000000pt" viewBox="0 0 700.000000 700.000000"
 preserveAspectRatio="xMidYMid meet">
<metadata>
Created by potrace 1.11, written by Peter Selinger 2001-2013
</metadata>
<g transform="translate(0.000000,700.000000) scale(0.100000,-0.100000)"
fill="#000000" stroke="none">
<path d="M3387 6964 c-1 -1 -42 -5 -91 -8 -107 -8 -192 -21 -321 -50 -647
-143 -1215 -571 -1556 -1170 l-56 -100 -89 -49 c-522 -290 -921 -765 -1110
-1320 -30 -88 -64 -209 -78 -277 -3 -14 -7 -34 -10 -46 -2 -12 -7 -45 -11 -75
-4 -30 -9 -57 -11 -60 -7 -11 -18 -223 -18 -329 1 -96 9 -227 19 -290 46 -293
102 -479 216 -716 142 -296 343 -557 594 -774 85 -73 253 -198 285 -213 8 -4
60 -33 114 -65 l100 -57 46 -86 c84 -154 203 -326 304 -439 467 -519 1101
-804 1786 -803 129 0 265 9 337 22 26 5 68 12 93 16 53 7 179 38 265 65 270
82 531 219 765 400 87 68 292 264 350 335 14 17 43 53 66 80 56 69 167 239
217 332 40 75 45 79 122 121 206 113 370 237 546 412 195 193 325 372 449 615
87 172 181 435 203 572 3 15 10 55 16 88 6 33 13 73 15 89 26 154 24 491 -4
656 -5 30 -12 74 -15 98 -9 61 -71 283 -107 382 -66 180 -205 442 -300 565
-179 232 -319 372 -548 548 -40 31 -184 121 -254 159 -78 43 -79 44 -135 143
-117 206 -223 347 -391 516 -137 138 -176 171 -295 259 -257 187 -540 317
-850 391 -110 26 -119 28 -175 35 -25 3 -52 7 -60 9 -43 11 -413 28 -423 19z
m383 -408 c177 -30 276 -56 415 -108 179 -66 328 -146 477 -255 118 -87 137
-103 255 -221 104 -105 141 -151 110 -139 -18 7 -141 24 -232 32 -64 6 -337 7
-395 1 -290 -28 -572 -102 -808 -212 l-100 -46 -78 37 c-168 81 -435 166 -599
191 -22 4 -47 8 -55 9 -8 2 -44 6 -80 10 -36 4 -76 9 -90 11 -35 4 -337 4
-385 -1 -131 -12 -159 -16 -179 -20 -11 -3 -36 -7 -53 -9 l-33 -3 50 57 c120
138 285 274 495 407 11 7 74 40 140 72 189 93 434 167 620 187 33 3 62 8 64
10 7 6 419 -3 461 -10z m-1150 -1080 c19 -3 55 -8 80 -11 25 -3 52 -8 60 -10
8 -2 27 -6 43 -9 15 -3 35 -7 45 -10 9 -3 29 -7 43 -10 47 -8 209 -59 209 -66
0 -3 -29 -30 -64 -59 -195 -157 -453 -487 -559 -712 -12 -27 -32 -44 -79 -69
-107 -57 -238 -140 -342 -219 -97 -73 -296 -262 -369 -350 -23 -27 -41 -41
-46 -35 -13 14 -67 188 -85 274 -34 169 -41 235 -40 415 0 156 5 211 29 358
15 87 76 292 103 346 14 28 29 39 78 57 54 20 223 69 279 80 80 16 138 25 204
30 42 3 77 8 79 9 5 5 293 -3 332 -9z m2204 -7 c23 -4 66 -10 96 -14 81 -10
201 -41 322 -82 l107 -37 26 -80 c75 -224 109 -434 109 -666 0 -159 -7 -230
-40 -412 -3 -15 -16 -66 -30 -115 -14 -48 -30 -105 -36 -125 -6 -21 -14 -38
-18 -38 -4 0 -20 17 -36 38 -39 51 -226 238 -294 293 -137 112 -269 201 -408
275 -72 38 -74 41 -123 132 -59 111 -143 237 -230 347 -62 79 -259 281 -332
341 l-38 31 98 32 c112 36 261 68 354 77 35 3 65 7 67 9 7 6 368 1 406 -6z
m-1204 -398 c81 -60 330 -303 330 -321 0 -6 -8 -9 -17 -6 -119 35 -586 42
-793 13 -52 -8 -96 -13 -98 -12 -1 1 48 54 110 117 116 118 184 178 285 253
67 49 55 52 183 -44z m2300 -88 c25 -23 54 -50 66 -60 11 -10 57 -61 103 -113
208 -236 365 -548 435 -861 22 -101 30 -148 42 -264 6 -57 5 -280 -1 -355 -14
-159 -78 -428 -135 -565 -68 -163 -159 -324 -264 -465 -71 -95 -273 -307 -315
-329 -20 -11 -21 -10 -16 12 9 36 12 56 20 137 4 41 9 86 11 100 5 33 6 379 0
388 -2 4 -7 39 -10 79 -18 207 -101 503 -208 734 l-39 85 35 77 c20 42 36 79
36 82 0 3 9 24 19 48 73 158 145 459 167 697 4 45 4 332 0 385 -6 74 -17 156
-26 207 -6 28 -10 53 -10 56 0 6 29 -18 90 -75z m-4756 35 c-7 -38 -24 -159
-29 -218 -5 -60 -6 -357 -1 -405 31 -306 98 -556 218 -816 l40 -86 -30 -64
c-101 -217 -185 -488 -207 -669 -3 -25 -7 -52 -10 -60 -16 -59 -22 -350 -10
-490 9 -112 21 -207 31 -242 11 -38 -21 -14 -134 100 -311 311 -508 686 -576
1097 -28 166 -37 383 -22 510 18 149 25 193 47 280 11 44 22 87 24 95 17 75
99 274 162 390 110 205 285 423 456 568 45 38 47 39 41 10z m2550 -632 c17 -3
54 -8 81 -11 28 -4 88 -16 135 -27 47 -11 92 -21 100 -23 90 -21 217 -74 225
-93 33 -81 90 -272 101 -342 2 -14 6 -35 9 -47 42 -184 37 -515 -10 -752 -8
-38 -46 -183 -54 -203 -5 -13 -19 -48 -31 -79 -25 -67 -24 -67 -265 -139 -258
-77 -648 -85 -935 -19 -116 27 -215 57 -275 84 l-50 22 -37 119 c-76 239 -101
396 -102 629 0 93 9 228 18 285 3 14 7 42 10 63 13 87 77 309 104 362 19 38
23 40 102 66 36 11 72 23 80 26 22 9 25 9 145 37 136 31 159 34 265 42 47 4
86 7 88 9 4 3 264 -4 296 -9z m-1464 -496 c-6 -34 -13 -78 -16 -98 -10 -69
-12 -477 -3 -542 4 -36 11 -85 14 -110 3 -25 8 -58 11 -75 l5 -30 -38 35
c-144 131 -250 248 -355 391 l-27 37 27 40 c74 111 253 305 377 411 16 14 17
6 5 -59z m2646 -75 c87 -87 191 -208 230 -270 10 -16 23 -33 28 -36 22 -16
-239 -320 -376 -437 l-38 -32 6 37 c24 147 31 270 29 463 -2 118 -5 224 -8
235 -2 11 -8 46 -12 79 -3 32 -9 70 -11 85 l-5 26 33 -30 c18 -16 74 -70 124
-120z m-3220 -752 c34 -46 219 -232 292 -293 119 -100 378 -270 458 -300 13
-5 40 -43 68 -95 42 -81 153 -256 189 -301 121 -151 276 -315 374 -394 l43
-34 -48 -18 c-169 -65 -372 -99 -617 -103 -272 -5 -467 25 -691 106 -99 36
-99 37 -144 196 -67 239 -89 402 -84 633 2 80 5 154 8 166 2 12 7 45 11 75 12
101 91 399 105 399 4 0 20 -17 36 -37z m3754 -198 c16 -60 31 -135 35 -165 3
-30 10 -82 14 -115 11 -79 6 -351 -8 -440 -9 -60 -18 -112 -36 -200 -15 -72
-79 -258 -97 -282 -17 -21 -272 -98 -393 -118 -180 -30 -452 -40 -570 -21 -22
4 -53 9 -70 11 -114 16 -388 84 -404 101 -2 2 18 23 45 46 65 56 249 242 300
304 42 52 164 221 164 229 0 2 13 23 29 47 15 24 45 76 67 116 37 71 39 73
133 124 237 127 483 324 651 522 l65 76 23 -62 c13 -35 37 -112 52 -173z
m-2287 -620 c32 -4 68 -9 80 -12 39 -9 450 -12 512 -3 33 5 85 11 115 14 30 4
68 9 85 12 l30 5 -25 -28 c-119 -134 -293 -291 -404 -366 l-39 -26 -99 76
c-118 90 -222 186 -303 279 -50 57 -56 66 -35 61 14 -3 51 -9 83 -12z m468
-901 c135 -60 336 -130 425 -148 11 -3 40 -9 67 -15 26 -6 64 -14 83 -17 20
-3 44 -7 53 -9 9 -2 41 -6 71 -10 30 -3 69 -8 85 -10 40 -6 337 -6 400 0 69 5
154 15 190 22 80 13 79 14 48 -20 -104 -114 -149 -158 -233 -228 -329 -277
-681 -425 -1125 -475 -45 -5 -312 -4 -370 1 -351 33 -726 185 -1026 417 -91
70 -290 262 -309 298 -9 16 -7 18 12 14 143 -29 478 -45 623 -29 148 16 178
20 285 42 188 38 402 110 555 187 28 14 53 25 56 25 4 1 53 -20 110 -45z"/>
</g>
</svg>
