<?xml version="1.0" encoding="utf-8"?>
<!-- Generator: Adobe Illustrator 23.0.2, SVG Export Plug-In . SVG Version: 6.00 Build 0)  -->
<svg version="1.1" id="Слой_1" xmlns="http://www.w3.org/2000/svg" xmlns:xlink="http://www.w3.org/1999/xlink" x="0px" y="0px"
	 viewBox="0 0 300 300" style="enable-background:new 0 0 300 300;" xml:space="preserve">
<style type="text/css">
	.st0{fill:#3284FF;}
	.st1{fill:#FF3424;}
	.st2{fill:#FFBB00;}
	.st3{fill:#26B14C;}
</style>
<g>
	<path class="st0" d="M272.5,150c0-8.1-0.7-16-2.1-23.6H152.5v47.3h71.3c-4.6,16.4-14.4,30.4-27.4,40l36.8,29.3
		C257.5,220.1,272.5,186.9,272.5,150L272.5,150z"/>
	<path class="st1" d="M154.1,75.7c17.9,0,34.1,6.5,46.6,17.3l34-34.5c-21.3-20.7-50-33.4-82.2-33.4c-48,0-90.8,28.2-111.6,69.2
		l41.8,31.9C93.4,96.7,121.8,75.7,154.1,75.7z"/>
	<path class="st2" d="M41.7,207.3L82,175.2c-2.5-7.4-3.8-15.3-3.8-23.5c0-9,1.6-17.6,4.5-25.6L40.9,94.2
		C32.4,111,27.5,129.9,27.5,150C27.5,170.7,32.7,190.1,41.7,207.3z"/>
	<path class="st3" d="M82,175.2l-40.3,32.1c21.1,40.2,63.4,67.7,110.8,67.7c31.5,0,59.6-12.1,80.7-32l-36.8-29.3
		c-11.8,8.8-26.4,14-42.4,14C121.1,227.7,92.1,205.7,82,175.2z"/>
</g>
</svg>
