<?xml version="1.0" encoding="utf-8"?>
<!-- Generator: Adobe Illustrator 23.0.2, SVG Export Plug-In . SVG Version: 6.00 Build 0)  -->
<svg version="1.1" id="Слой_1" xmlns="http://www.w3.org/2000/svg" xmlns:xlink="http://www.w3.org/1999/xlink" x="0px" y="0px"
	 viewBox="0 0 100 100" style="enable-background:new 0 0 100 100;" xml:space="preserve">
<style type="text/css">
	.st0{fill:#000333;}
</style>
<g>
	<path class="st0" d="M99.5,50c0-13.4-7.8-24.9-19-30.5C74.9,8.3,63.4,0.5,50,0.5s-24.9,7.8-30.5,19C8.3,25.1,0.5,36.6,0.5,50
		s7.8,24.9,19,30.5c5.5,11.3,17.1,19,30.5,19s24.9-7.8,30.5-19C91.7,74.9,99.5,63.4,99.5,50z M50,6.1c8.9,0,16.9,4.2,22.1,10.6
		c-2.1-0.4-4.3-0.6-6.6-0.6c-5.6,0-10.9,1.4-15.6,3.8c-4.7-2.4-10-3.8-15.6-3.8c-2.2,0-4.4,0.2-6.6,0.6C33.1,10.2,41.1,6.1,50,6.1z
		 M78.4,34.4c0,3.5-0.7,6.9-1.8,10c-3.1-3.9-7.1-7.1-11.6-9.3c-2.2-4.5-5.4-8.5-9.3-11.6c3.1-1.2,6.5-1.8,10-1.8
		c3.8,0,7.4,0.7,10.7,2.1C77.6,27,78.4,30.7,78.4,34.4z M78.4,65.6c0,3.8-0.7,7.4-2.1,10.7c-3.3,1.3-6.9,2.1-10.7,2.1
		c-3.5,0-6.9-0.7-10-1.8c3.9-3.1,7.1-7.1,9.3-11.6c4.5-2.2,8.5-5.4,11.6-9.3C77.7,58.7,78.4,62,78.4,65.6z M21.6,65.6
		c0-3.5,0.7-6.9,1.8-10c3.1,3.9,7.1,7.1,11.6,9.3c2.2,4.5,5.4,8.5,9.3,11.6c-3.1,1.2-6.5,1.8-10,1.8c-3.8,0-7.4-0.7-10.7-2.1
		C22.4,73,21.6,69.3,21.6,65.6z M21.6,34.4c0-3.8,0.7-7.4,2.1-10.7c3.3-1.3,6.9-2.1,10.7-2.1c3.5,0,6.9,0.7,10,1.8
		c-3.9,3.1-7.1,7.1-9.3,11.6c-4.5,2.2-8.5,5.4-11.6,9.3C22.3,41.3,21.6,38,21.6,34.4z M56.6,32.3c-2.1-0.4-4.3-0.6-6.6-0.6
		s-4.4,0.2-6.6,0.6c1.9-2.3,4.1-4.3,6.6-6C52.5,28,54.7,30,56.6,32.3z M62.8,50c0,3.8-0.7,7.4-2.1,10.7c-3.3,1.3-6.9,2.1-10.7,2.1
		s-7.4-0.7-10.7-2.1c-1.3-3.3-2.1-6.9-2.1-10.7s0.7-7.4,2.1-10.7c3.3-1.3,6.9-2.1,10.7-2.1s7.4,0.7,10.7,2.1
		C62,42.6,62.8,46.2,62.8,50z M32.3,43.4c-0.4,2.1-0.6,4.3-0.6,6.6s0.2,4.4,0.6,6.6c-2.3-1.9-4.3-4.1-6-6.6
		C28,47.5,30,45.3,32.3,43.4z M43.4,67.7c2.1,0.4,4.3,0.6,6.6,0.6s4.4-0.2,6.6-0.6c-1.9,2.3-4.1,4.3-6.6,6
		C47.5,72,45.3,70,43.4,67.7z M67.7,56.6c0.4-2.1,0.6-4.3,0.6-6.6s-0.2-4.4-0.6-6.6c2.3,1.9,4.3,4.1,6,6.6
		C72,52.5,70,54.7,67.7,56.6z M6.1,50c0-8.9,4.2-16.9,10.6-22.1c-0.4,2.1-0.6,4.3-0.6,6.6c0,5.6,1.4,10.9,3.8,15.6
		c-2.4,4.7-3.8,10-3.8,15.6c0,2.2,0.2,4.4,0.6,6.6C10.2,66.9,6.1,58.9,6.1,50z M50,93.9c-8.9,0-16.9-4.2-22.1-10.6
		c2.1,0.4,4.3,0.6,6.6,0.6c5.6,0,10.9-1.4,15.6-3.8c4.7,2.4,10,3.8,15.6,3.8c2.2,0,4.4-0.2,6.6-0.6C66.9,89.8,58.9,93.9,50,93.9z
		 M83.3,72.1c0.4-2.1,0.6-4.3,0.6-6.6c0-5.6-1.4-10.9-3.8-15.6c2.4-4.7,3.8-10,3.8-15.6c0-2.2-0.2-4.4-0.6-6.6
		c6.5,5.2,10.6,13.2,10.6,22.1S89.8,66.9,83.3,72.1z"/>
</g>
</svg>
